<?xml version="1.0" encoding="UTF-8"?>
<svg xmlns="http://www.w3.org/2000/svg" xmlns:xlink="http://www.w3.org/1999/xlink" width="80px" height="80px" viewBox="0 0 80 84" version="1.1">
<defs>
<linearGradient id="linear0" gradientUnits="userSpaceOnUse" x1="90.682503" y1="9.58222" x2="90.682503" y2="180.981995" gradientTransform="matrix(0.441989,0,0,0.439791,0,0)">
<stop offset="0" style="stop-color:rgb(0%,67.058824%,87.058824%);stop-opacity:1;"/>
<stop offset="1" style="stop-color:rgb(0%,49.411765%,84.705882%);stop-opacity:1;"/>
</linearGradient>
<linearGradient id="linear1" gradientUnits="userSpaceOnUse" x1="36.802101" y1="4.37329" x2="203.479996" y2="286.70401" gradientTransform="matrix(0.441989,0,0,0.439791,0,0)">
<stop offset="0" style="stop-color:rgb(0%,49.411765%,84.705882%);stop-opacity:1;"/>
<stop offset="0.7065" style="stop-color:rgb(0%,17.647059%,29.803922%);stop-opacity:1;"/>
</linearGradient>
<linearGradient id="linear2" gradientUnits="userSpaceOnUse" x1="46.844002" y1="23.496401" x2="197.363998" y2="273.511993" >
<stop offset="0" style="stop-color:rgb(0%,49.411765%,84.705882%);stop-opacity:1;"/>
<stop offset="0.7065" style="stop-color:rgb(0%,17.647059%,29.803922%);stop-opacity:1;"/>
</linearGradient>
<filter id="alpha" filterUnits="objectBoundingBox" x="0%" y="0%" width="100%" height="100%">
  <feColorMatrix type="matrix" in="SourceGraphic" values="0 0 0 0 1 0 0 0 0 1 0 0 0 0 1 0 0 0 1 0"/>
</filter>
<mask id="mask0">
  <g filter="url(#alpha)">
<rect x="0" y="0" width="80" height="84" style="fill:rgb(0%,0%,0%);fill-opacity:0.14902;stroke:none;"/>
  </g>
</mask>
<clipPath id="clip1">
  <rect x="0" y="0" width="80" height="84"/>
</clipPath>
<g id="surface5" clip-path="url(#clip1)">
<path style=" stroke:none;fill-rule:nonzero;fill:rgb(12.156863%,11.372549%,12.54902%);fill-opacity:1;" d="M 40.238281 60.589844 C 49.832031 60.589844 57.605469 52.855469 57.605469 43.3125 C 57.605469 33.769531 49.832031 26.03125 40.238281 26.03125 C 30.648438 26.03125 22.875 33.769531 22.875 43.3125 C 22.875 52.855469 30.648438 60.589844 40.238281 60.589844 Z M 40.238281 60.589844 "/>
</g>
<mask id="mask1">
  <g filter="url(#alpha)">
<rect x="0" y="0" width="80" height="84" style="fill:rgb(0%,0%,0%);fill-opacity:0.14902;stroke:none;"/>
  </g>
</mask>
<clipPath id="clip2">
  <rect x="0" y="0" width="80" height="84"/>
</clipPath>
<g id="surface8" clip-path="url(#clip2)">
<path style=" stroke:none;fill-rule:nonzero;fill:rgb(12.156863%,11.372549%,12.54902%);fill-opacity:1;" d="M 29.378906 44.691406 L 40.148438 51.574219 L 51.105469 44.660156 L 52.480469 46.242188 L 40.152344 54.0625 L 28.015625 46.242188 Z M 29.378906 44.691406 "/>
</g>
<linearGradient id="linear3" gradientUnits="userSpaceOnUse" x1="104.097" y1="107.766998" x2="90.072601" y2="80.945503" gradientTransform="matrix(0.441989,0,0,0.439791,0,0)">
<stop offset="0" style="stop-color:rgb(9.803922%,53.333333%,85.098039%);stop-opacity:1;"/>
<stop offset="0.9" style="stop-color:rgb(32.941176%,68.235294%,94.117647%);stop-opacity:1;"/>
</linearGradient>
<linearGradient id="linear4" gradientUnits="userSpaceOnUse" x1="98.091499" y1="99.944504" x2="107.790001" y2="116.837997" gradientTransform="matrix(0.441989,0,0,0.439791,0,0)">
<stop offset="0.1" style="stop-color:rgb(32.941176%,68.235294%,94.117647%);stop-opacity:1;"/>
<stop offset="0.29" style="stop-color:rgb(30.980392%,67.058824%,93.333333%);stop-opacity:1;"/>
<stop offset="0.51" style="stop-color:rgb(25.490196%,63.529412%,91.372549%);stop-opacity:1;"/>
<stop offset="0.74" style="stop-color:rgb(16.470588%,57.647059%,87.843137%);stop-opacity:1;"/>
<stop offset="0.88" style="stop-color:rgb(9.803922%,53.333333%,85.098039%);stop-opacity:1;"/>
</linearGradient>
</defs>
<g id="surface1">
<path style=" stroke:none;fill-rule:nonzero;fill:rgb(94.901961%,94.509804%,94.117647%);fill-opacity:1;" d="M 40.082031 83.253906 C 41.433594 83.253906 42.761719 82.878906 43.9375 82.167969 L 71.328125 65.605469 C 73.777344 64.121094 75.292969 61.339844 75.292969 58.332031 L 75.292969 25.472656 C 75.292969 22.472656 73.777344 19.6875 71.328125 18.199219 L 43.9375 1.636719 C 41.582031 0.210938 38.570312 0.222656 36.226562 1.636719 L 8.835938 18.207031 C 6.386719 19.691406 4.863281 22.472656 4.863281 25.484375 L 4.863281 58.335938 C 4.863281 60.867188 5.945312 63.253906 7.757812 64.820312 L 7.757812 64.835938 L 36.226562 82.175781 C 37.394531 82.878906 38.726562 83.253906 40.082031 83.253906 Z M 40.367188 3.628906 C 41.230469 3.628906 42.324219 4.160156 43.082031 4.625 L 69.9375 20.980469 C 71.59375 21.980469 72.53125 24.882812 72.53125 26.972656 L 72.253906 58.332031 C 72.253906 60.417969 70.839844 62.296875 69.179688 63.300781 L 42.484375 79.300781 C 40.96875 80.21875 39.734375 80.21875 38.214844 79.300781 L 11.160156 63.261719 C 9.503906 62.257812 8.167969 60.410156 8.167969 58.332031 L 8.167969 25.945312 C 8.167969 23.859375 9.375 21.710938 11.042969 20.703125 L 37.816406 4.625 C 38.570312 4.164062 39.507812 3.628906 40.367188 3.628906 Z M 40.367188 3.628906 "/>
<path style=" stroke:none;fill-rule:evenodd;fill:url(#linear0);" d="M 43.574219 5.203125 C 42.488281 4.542969 41.289062 4.214844 40.082031 4.214844 C 38.875 4.214844 37.671875 4.546875 36.589844 5.203125 L 11.78125 20.300781 C 9.5625 21.652344 8.1875 24.179688 8.1875 26.929688 L 8.1875 56.878906 C 8.1875 59.621094 9.558594 62.15625 11.78125 63.507812 L 36.589844 78.605469 C 37.671875 79.265625 38.875 79.59375 40.082031 79.59375 C 41.289062 79.59375 42.488281 79.269531 43.574219 78.605469 L 68.382812 63.507812 C 70.601562 62.15625 71.976562 59.621094 71.976562 56.878906 L 71.976562 26.929688 C 71.976562 24.191406 70.605469 21.660156 68.382812 20.300781 Z M 43.574219 5.203125 "/>
<path style=" stroke:none;fill-rule:evenodd;fill:url(#linear1);" d="M 40.082031 4.859375 C 40.824219 4.859375 41.660156 5.242188 42.570312 5.792969 L 68.414062 21.421875 C 70.027344 22.398438 71.089844 24.277344 71.089844 26.402344 L 71.089844 57.398438 C 71.089844 59.519531 70.027344 61.398438 68.414062 62.375 L 42.574219 78.007812 C 41.707031 78.53125 40.859375 78.859375 40.085938 78.859375 C 39.3125 78.859375 38.464844 78.53125 37.597656 78.007812 L 11.75 62.378906 C 10.859375 61.839844 10.21875 61.3125 9.785156 60.605469 C 9.355469 59.898438 9.070312 58.925781 9.070312 57.402344 L 9.070312 26.40625 C 9.070312 24.28125 10.136719 22.402344 11.75 21.425781 L 37.585938 5.796875 C 38.511719 5.246094 39.332031 4.859375 40.082031 4.859375 Z M 43.488281 79.515625 L 69.328125 63.886719 C 71.5 62.570312 72.855469 60.097656 72.855469 57.402344 L 72.855469 26.40625 C 72.855469 23.710938 71.5 21.238281 69.328125 19.921875 L 43.488281 4.292969 C 42.554688 3.730469 41.359375 3.101562 40.082031 3.101562 C 38.800781 3.101562 37.601562 3.734375 36.675781 4.289062 L 36.671875 4.289062 L 10.828125 19.921875 C 8.65625 21.238281 7.304688 23.710938 7.304688 26.40625 L 7.304688 57.402344 C 7.304688 59.144531 7.628906 60.457031 8.273438 61.519531 C 8.921875 62.574219 9.832031 63.277344 10.828125 63.878906 L 36.667969 79.511719 C 37.648438 80.105469 38.828125 80.625 40.078125 80.625 C 41.324219 80.625 42.507812 80.109375 43.488281 79.515625 Z M 43.488281 79.515625 "/>
<path style="fill:none;stroke-width:1.0127;stroke-linecap:butt;stroke-linejoin:miter;stroke:rgb(45.882353%,45.882353%,47.843137%);stroke-opacity:1;stroke-miterlimit:10;" d="M 100.142139 95.606585 L 101.335254 95.606585 " transform="matrix(0.441989,0,0,0.439791,0,0)"/>
<path style="fill:none;stroke-width:1.0127;stroke-linecap:butt;stroke-linejoin:miter;stroke:rgb(45.882353%,45.882353%,47.843137%);stroke-opacity:1;stroke-miterlimit:10;" d="M 100.142139 46.76409 L 101.335254 46.76409 " transform="matrix(0.441989,0,0,0.439791,0,0)"/>
<path style="fill-rule:nonzero;fill:url(#linear2);stroke-width:1;stroke-linecap:butt;stroke-linejoin:miter;stroke:rgb(100%,100%,100%);stroke-opacity:1;stroke-miterlimit:4;" d="M 153.39043 96.308268 C 153.39043 130.744048 125.206396 158.83803 90.685596 158.83803 C 56.155957 158.83803 27.971924 130.717401 27.971924 96.308268 C 27.971924 61.899135 56.155957 33.805153 90.685596 33.805153 C 125.188721 33.805153 153.39043 61.881371 153.39043 96.308268 Z M 153.39043 96.308268 " transform="matrix(0.441989,0,0,0.439791,0,0)"/>
<path style=" stroke:none;fill-rule:nonzero;fill:rgb(100%,100%,100%);fill-opacity:1;" d="M 40.386719 14.746094 L 39.859375 14.746094 L 39.859375 70.078125 L 40.386719 70.078125 Z M 40.386719 14.746094 "/>
<path style=" stroke:none;fill-rule:nonzero;fill:rgb(100%,100%,100%);fill-opacity:1;" d="M 40.082031 56.0625 C 24.589844 56.0625 11.933594 49.941406 11.933594 42.46875 C 11.933594 34.996094 24.589844 28.875 40.082031 28.875 C 55.574219 28.875 68.226562 34.996094 68.226562 42.46875 C 68.214844 49.941406 55.5625 56.0625 40.082031 56.0625 Z M 40.082031 29.28125 C 24.804688 29.28125 12.460938 35.199219 12.460938 42.355469 C 12.460938 49.515625 24.804688 55.433594 40.082031 55.433594 C 55.355469 55.433594 67.699219 49.515625 67.699219 42.355469 C 67.691406 35.199219 55.355469 29.28125 40.082031 29.28125 Z M 40.082031 29.28125 "/>
<path style=" stroke:none;fill-rule:nonzero;fill:rgb(100%,100%,100%);fill-opacity:1;" d="M 40.082031 70.394531 C 32.550781 70.394531 26.378906 57.839844 26.378906 42.46875 C 26.378906 27.097656 32.550781 14.539062 40.082031 14.539062 C 47.613281 14.539062 53.78125 27.105469 53.78125 42.46875 C 53.78125 57.828125 47.613281 70.394531 40.082031 70.394531 Z M 40.082031 14.953125 C 32.757812 14.953125 26.90625 27.207031 26.90625 42.355469 C 26.90625 57.511719 32.867188 69.761719 40.082031 69.761719 C 47.292969 69.761719 53.257812 57.507812 53.257812 42.355469 C 53.257812 27.207031 47.394531 14.953125 40.082031 14.953125 Z M 40.082031 14.953125 "/>
<path style=" stroke:none;fill-rule:nonzero;fill:rgb(100%,100%,100%);fill-opacity:1;" d="M 68.003906 42.152344 L 12.253906 42.152344 L 12.253906 42.667969 L 68.015625 42.667969 L 68.015625 42.152344 Z M 68.003906 42.152344 "/>
<path style=" stroke:none;fill-rule:nonzero;fill:rgb(100%,100%,100%);fill-opacity:1;" d="M 40.082031 58.238281 C 41.445312 58.238281 42.589844 57.097656 42.589844 55.746094 C 42.589844 54.390625 41.445312 53.253906 40.082031 53.253906 C 38.714844 53.253906 37.570312 54.394531 37.570312 55.746094 C 37.570312 57.097656 38.714844 58.238281 40.082031 58.238281 Z M 40.082031 58.238281 "/>
<path style=" stroke:none;fill-rule:nonzero;fill:rgb(100%,100%,100%);fill-opacity:1;" d="M 26.585938 44.4375 C 27.730469 44.4375 28.683594 43.503906 28.683594 42.355469 C 28.683594 41.21875 27.746094 40.277344 26.585938 40.277344 C 25.441406 40.277344 24.492188 41.210938 24.492188 42.355469 C 24.492188 43.503906 25.429688 44.4375 26.585938 44.4375 Z M 26.585938 44.4375 "/>
<path style=" stroke:none;fill-rule:nonzero;fill:rgb(31.37255%,90.196079%,100%);fill-opacity:1;" d="M 40.160156 31.824219 C 41.75 31.824219 43.027344 30.558594 43.027344 28.980469 C 43.027344 27.398438 41.75 26.132812 40.160156 26.132812 C 38.570312 26.132812 37.292969 27.398438 37.292969 28.980469 C 37.292969 30.558594 38.570312 31.824219 40.160156 31.824219 Z M 40.160156 31.824219 "/>
<path style=" stroke:none;fill-rule:nonzero;fill:rgb(31.37255%,90.196079%,100%);fill-opacity:1;" d="M 53.457031 45.164062 C 55.046875 45.164062 56.324219 43.898438 56.324219 42.316406 C 56.324219 40.738281 55.046875 39.472656 53.457031 39.472656 C 51.863281 39.472656 50.585938 40.738281 50.585938 42.316406 C 50.585938 43.898438 51.863281 45.164062 53.457031 45.164062 Z M 53.457031 45.164062 "/>
<use xlink:href="#surface5" mask="url(#mask0)"/>
<path style=" stroke:none;fill-rule:nonzero;fill:rgb(100%,100%,100%);fill-opacity:1;" d="M 40.238281 59.574219 C 49.832031 59.574219 57.605469 51.839844 57.605469 42.296875 C 57.605469 32.753906 49.832031 25.015625 40.238281 25.015625 C 30.648438 25.015625 22.875 32.753906 22.875 42.296875 C 22.875 51.839844 30.648438 59.574219 40.238281 59.574219 Z M 40.238281 59.574219 "/>
<use xlink:href="#surface8" mask="url(#mask1)"/>
<path style=" stroke:none;fill-rule:nonzero;fill:rgb(61.176473%,92.156863%,100%);fill-opacity:1;" d="M 29.378906 43.605469 L 40.148438 50.488281 L 51.105469 43.574219 L 52.480469 45.15625 L 40.152344 52.976562 L 28.015625 45.15625 Z M 29.378906 43.605469 "/>
<path style=" stroke:none;fill-rule:nonzero;fill:rgb(100%,100%,100%);fill-opacity:1;" d="M 30.195312 42.71875 L 40.144531 31.039062 L 50.296875 42.730469 L 40.144531 49.054688 Z M 30.195312 42.71875 "/>
<path style=" stroke:none;fill-rule:nonzero;fill:rgb(61.176473%,92.156863%,100%);fill-opacity:1;" d="M 40.144531 31.039062 L 40.144531 49.050781 L 30.195312 42.71875 Z M 40.144531 31.039062 "/>
<path style=" stroke:none;fill-rule:nonzero;fill:url(#linear3);" d="M 40.144531 31.039062 L 40.144531 49.050781 L 50.296875 42.726562 Z M 40.144531 31.039062 "/>
<path style=" stroke:none;fill-rule:nonzero;fill:rgb(32.549021%,69.411767%,87.843138%);fill-opacity:1;" d="M 40.144531 40.351562 L 50.296875 42.734375 L 40.144531 49.058594 Z M 40.144531 40.351562 "/>
<path style=" stroke:none;fill-rule:nonzero;fill:rgb(76.47059%,94.509804%,100%);fill-opacity:1;" d="M 40.144531 49.054688 L 30.195312 42.722656 L 40.144531 40.351562 Z M 40.144531 49.054688 "/>
<path style=" stroke:none;fill-rule:nonzero;fill:url(#linear4);" d="M 40.144531 52.984375 L 52.46875 45.160156 L 51.09375 43.578125 L 40.144531 50.488281 Z M 40.144531 52.984375 "/>
</g>
</svg>
