<?xml version="1.0" encoding="UTF-8"?>
<svg xmlns="http://www.w3.org/2000/svg" xmlns:xlink="http://www.w3.org/1999/xlink" width="80px" height="80px" viewBox="0 0 80 84" version="1.1">
<defs>
<linearGradient id="linear0" gradientUnits="userSpaceOnUse" x1="90" y1="9.27999" x2="90" y2="180.679993" gradientTransform="matrix(0.444444,0,0,0.442105,0,0)">
<stop offset="0" style="stop-color:rgb(0%,67.058824%,87.058824%);stop-opacity:1;"/>
<stop offset="1" style="stop-color:rgb(0%,49.411765%,84.705882%);stop-opacity:1;"/>
</linearGradient>
<linearGradient id="linear1" gradientUnits="userSpaceOnUse" x1="36.119499" y1="4.0713" x2="202.796997" y2="286.401001" gradientTransform="matrix(0.444444,0,0,0.442105,0,0)">
<stop offset="0" style="stop-color:rgb(0%,49.411765%,84.705882%);stop-opacity:1;"/>
<stop offset="0.7065" style="stop-color:rgb(0%,17.647059%,29.803922%);stop-opacity:1;"/>
</linearGradient>
<filter id="alpha" filterUnits="objectBoundingBox" x="0%" y="0%" width="100%" height="100%">
  <feColorMatrix type="matrix" in="SourceGraphic" values="0 0 0 0 1 0 0 0 0 1 0 0 0 0 1 0 0 0 1 0"/>
</filter>
<mask id="mask0">
  <g filter="url(#alpha)">
<rect x="0" y="0" width="80" height="84" style="fill:rgb(0%,0%,0%);fill-opacity:0.14902;stroke:none;"/>
  </g>
</mask>
<clipPath id="clip1">
  <rect x="0" y="0" width="80" height="84"/>
</clipPath>
<g id="surface5" clip-path="url(#clip1)">
<path style=" stroke:none;fill-rule:nonzero;fill:rgb(12.156863%,11.372549%,12.54902%);fill-opacity:1;" d="M 13.207031 56.785156 L 47.730469 56.785156 C 48.699219 56.785156 49.480469 56 49.480469 55.042969 L 49.480469 25.597656 L 11.453125 25.597656 L 11.453125 55.042969 C 11.453125 56 12.238281 56.785156 13.207031 56.785156 Z M 13.207031 56.785156 "/>
</g>
<linearGradient id="linear2" gradientUnits="userSpaceOnUse" x1="65.046097" y1="90.720299" x2="113.334" y2="142.654999" gradientTransform="matrix(0.444444,0,0,0.442105,0,0)">
<stop offset="0" style="stop-color:rgb(0%,49.411765%,84.705882%);stop-opacity:1;"/>
<stop offset="0.7065" style="stop-color:rgb(0%,17.647059%,29.803922%);stop-opacity:1;"/>
</linearGradient>
<linearGradient id="linear3" gradientUnits="userSpaceOnUse" x1="72.524696" y1="83.766403" x2="120.811996" y2="135.699997" gradientTransform="matrix(0.444444,0,0,0.442105,0,0)">
<stop offset="0" style="stop-color:rgb(0%,49.411765%,84.705882%);stop-opacity:1;"/>
<stop offset="0.7065" style="stop-color:rgb(0%,17.647059%,29.803922%);stop-opacity:1;"/>
</linearGradient>
<linearGradient id="linear4" gradientUnits="userSpaceOnUse" x1="71.105797" y1="85.085503" x2="119.392998" y2="137.020004" gradientTransform="matrix(0.444444,0,0,0.442105,0,0)">
<stop offset="0" style="stop-color:rgb(0%,49.411765%,84.705882%);stop-opacity:1;"/>
<stop offset="0.7065" style="stop-color:rgb(0%,17.647059%,29.803922%);stop-opacity:1;"/>
</linearGradient>
<linearGradient id="linear5" gradientUnits="userSpaceOnUse" x1="55.242901" y1="80.862099" x2="14.7238" y2="74.401199" gradientTransform="matrix(0.444444,0,0,0.442105,0,0)">
<stop offset="0" style="stop-color:rgb(0%,49.411765%,84.705882%);stop-opacity:1;"/>
<stop offset="0.7065" style="stop-color:rgb(0%,17.647059%,29.803922%);stop-opacity:1;"/>
</linearGradient>
<linearGradient id="linear6" gradientUnits="userSpaceOnUse" x1="55.241402" y1="80.875" x2="14.7222" y2="74.414001" gradientTransform="matrix(0.444444,0,0,0.442105,0,0)">
<stop offset="0" style="stop-color:rgb(0%,49.411765%,84.705882%);stop-opacity:1;"/>
<stop offset="0.7065" style="stop-color:rgb(0%,17.647059%,29.803922%);stop-opacity:1;"/>
</linearGradient>
<mask id="mask1">
  <g filter="url(#alpha)">
<rect x="0" y="0" width="80" height="84" style="fill:rgb(0%,0%,0%);fill-opacity:0.14902;stroke:none;"/>
  </g>
</mask>
<clipPath id="clip2">
  <rect x="0" y="0" width="80" height="84"/>
</clipPath>
<g id="surface8" clip-path="url(#clip2)">
<path style=" stroke:none;fill-rule:nonzero;fill:rgb(12.156863%,11.372549%,12.54902%);fill-opacity:1;" d="M 43.949219 60.765625 L 67.347656 60.765625 C 68.257812 60.765625 68.992188 60.035156 68.992188 59.132812 L 68.992188 40.605469 L 42.304688 40.605469 L 42.304688 59.136719 C 42.304688 60.042969 43.039062 60.765625 43.949219 60.765625 Z M 43.949219 60.765625 "/>
</g>
<linearGradient id="linear7" gradientUnits="userSpaceOnUse" x1="96.8899" y1="90.684502" x2="99.769897" y2="90.684502" gradientTransform="matrix(0.444444,0,0,0.442105,0,0)">
<stop offset="0" style="stop-color:rgb(46.27451%,75.294118%,99.215686%);stop-opacity:1;"/>
<stop offset="1" style="stop-color:rgb(38.823529%,69.803922%,98.431373%);stop-opacity:1;"/>
</linearGradient>
<mask id="mask2">
  <g filter="url(#alpha)">
<rect x="0" y="0" width="80" height="84" style="fill:rgb(0%,0%,0%);fill-opacity:0.14902;stroke:none;"/>
  </g>
</mask>
<clipPath id="clip3">
  <rect x="0" y="0" width="80" height="84"/>
</clipPath>
<g id="surface11" clip-path="url(#clip3)">
<path style=" stroke:none;fill-rule:nonzero;fill:rgb(12.156863%,11.372549%,12.54902%);fill-opacity:1;" d="M 55.949219 56.1875 L 45.378906 56.1875 C 45.285156 56.1875 45.203125 56.109375 45.203125 56.011719 L 45.203125 55.191406 L 56.121094 55.191406 L 56.121094 56.011719 C 56.125 56.109375 56.042969 56.1875 55.949219 56.1875 Z M 55.949219 56.1875 "/>
</g>
</defs>
<g id="surface1">
<path style=" stroke:none;fill-rule:nonzero;fill:rgb(94.901961%,94.509804%,94.117647%);fill-opacity:1;" d="M 40 83.558594 C 41.359375 83.558594 42.699219 83.183594 43.878906 82.464844 L 71.421875 65.816406 C 73.882812 64.328125 75.410156 61.527344 75.410156 58.503906 L 75.410156 25.472656 C 75.410156 22.460938 73.882812 19.65625 71.421875 18.160156 L 43.878906 1.511719 C 41.511719 0.078125 38.480469 0.0898438 36.125 1.511719 L 8.582031 18.171875 C 6.121094 19.660156 4.585938 22.460938 4.585938 25.484375 L 4.585938 58.507812 C 4.585938 61.054688 5.675781 63.449219 7.496094 65.027344 L 7.496094 65.042969 L 36.125 82.476562 C 37.296875 83.183594 38.640625 83.558594 40 83.558594 Z M 40.289062 3.515625 C 41.15625 3.515625 42.257812 4.050781 43.019531 4.515625 L 70.023438 20.957031 C 71.6875 21.964844 72.632812 24.882812 72.632812 26.980469 L 72.351562 58.503906 C 72.351562 60.605469 70.929688 62.492188 69.261719 63.5 L 42.417969 79.582031 C 40.894531 80.507812 39.652344 80.507812 38.125 79.582031 L 10.921875 63.460938 C 9.253906 62.453125 7.910156 60.59375 7.910156 58.503906 L 7.910156 25.945312 C 7.910156 23.851562 9.125 21.691406 10.800781 20.675781 L 37.722656 4.515625 C 38.480469 4.054688 39.421875 3.515625 40.289062 3.515625 Z M 40.289062 3.515625 "/>
<path style=" stroke:none;fill-rule:evenodd;fill:url(#linear0);" d="M 43.511719 5.097656 C 42.421875 4.433594 41.214844 4.101562 40 4.101562 C 38.785156 4.101562 37.578125 4.4375 36.488281 5.097656 L 11.542969 20.273438 C 9.3125 21.632812 7.929688 24.175781 7.929688 26.9375 L 7.929688 57.042969 C 7.929688 59.800781 9.308594 62.351562 11.542969 63.707031 L 36.488281 78.886719 C 37.578125 79.546875 38.785156 79.878906 40 79.878906 C 41.214844 79.878906 42.421875 79.550781 43.511719 78.886719 L 68.457031 63.707031 C 70.6875 62.351562 72.070312 59.800781 72.070312 57.042969 L 72.070312 26.9375 C 72.070312 24.183594 70.691406 21.640625 68.457031 20.273438 Z M 43.511719 5.097656 "/>
<path style=" stroke:none;fill-rule:evenodd;fill:url(#linear1);" d="M 40 4.753906 C 40.746094 4.753906 41.585938 5.136719 42.503906 5.691406 L 68.488281 21.402344 C 70.109375 22.382812 71.183594 24.273438 71.183594 26.40625 L 71.183594 57.566406 C 71.183594 59.699219 70.109375 61.589844 68.488281 62.570312 L 42.507812 78.285156 C 41.636719 78.808594 40.78125 79.140625 40.003906 79.140625 C 39.226562 79.140625 38.375 78.808594 37.503906 78.285156 L 11.511719 62.574219 C 10.617188 62.03125 9.972656 61.5 9.539062 60.789062 C 9.101562 60.082031 8.816406 59.101562 8.816406 57.570312 L 8.816406 26.410156 C 8.816406 24.277344 9.890625 22.386719 11.511719 21.40625 L 37.492188 5.695312 C 38.421875 5.140625 39.25 4.753906 40 4.753906 Z M 43.425781 79.800781 L 69.410156 64.085938 C 71.59375 62.765625 72.957031 60.28125 72.957031 57.570312 L 72.957031 26.410156 C 72.957031 23.703125 71.59375 21.214844 69.410156 19.894531 L 43.425781 4.183594 C 42.488281 3.617188 41.285156 2.984375 40 2.984375 C 38.710938 2.984375 37.507812 3.621094 36.578125 4.179688 L 36.574219 4.179688 L 10.585938 19.894531 C 8.398438 21.214844 7.039062 23.703125 7.039062 26.410156 L 7.039062 57.570312 C 7.039062 59.320312 7.367188 60.644531 8.019531 61.710938 C 8.667969 62.769531 9.582031 63.476562 10.585938 64.082031 L 36.570312 79.796875 C 37.554688 80.390625 38.742188 80.914062 39.996094 80.914062 C 41.25 80.914062 42.441406 80.398438 43.425781 79.800781 Z M 43.425781 79.800781 "/>
<path style=" stroke:none;fill-rule:nonzero;fill:rgb(100%,100%,100%);fill-opacity:1;" d="M 40 71.640625 C 39.007812 71.640625 38.023438 71.359375 37.15625 70.828125 L 17.777344 59.042969 C 15.976562 57.957031 14.863281 55.898438 14.863281 53.679688 L 14.863281 30.296875 C 14.863281 28.085938 15.976562 26.03125 17.777344 24.933594 L 37.148438 13.144531 C 38.898438 12.082031 41.105469 12.089844 42.835938 13.144531 L 62.222656 24.9375 C 64.023438 26.039062 65.136719 28.089844 65.136719 30.300781 L 65.136719 53.679688 C 65.136719 55.890625 64.023438 57.945312 62.222656 59.042969 L 42.84375 70.835938 C 41.988281 71.359375 41.003906 71.640625 40 71.640625 Z M 39.996094 12.78125 C 39.089844 12.78125 38.1875 13.039062 37.382812 13.523438 L 18.011719 25.308594 C 16.347656 26.328125 15.3125 28.238281 15.3125 30.296875 L 15.3125 53.679688 C 15.3125 55.746094 16.347656 57.65625 18.011719 58.667969 L 37.386719 70.457031 C 38.992188 71.433594 41.050781 71.421875 42.613281 70.457031 L 61.992188 58.667969 C 63.65625 57.652344 64.691406 55.742188 64.691406 53.679688 L 64.691406 30.300781 C 64.691406 28.246094 63.65625 26.335938 61.992188 25.316406 L 42.613281 13.519531 C 41.808594 13.039062 40.90625 12.78125 39.996094 12.78125 Z M 39.996094 12.78125 "/>
<use xlink:href="#surface5" mask="url(#mask0)"/>
<path style=" stroke:none;fill-rule:nonzero;fill:rgb(92.156863%,92.156863%,92.156863%);fill-opacity:1;" d="M 12.179688 55.1875 L 48.75 55.1875 C 49.152344 55.1875 49.476562 54.867188 49.476562 54.46875 L 49.476562 24 L 11.453125 24 L 11.453125 54.46875 C 11.453125 54.867188 11.78125 55.1875 12.179688 55.1875 Z M 12.179688 55.1875 "/>
<path style=" stroke:none;fill-rule:nonzero;fill:rgb(3.529412%,18.039216%,29.803923%);fill-opacity:1;" d="M 11.453125 27.144531 L 49.480469 27.144531 L 49.480469 23.753906 C 49.480469 23.449219 49.230469 23.203125 48.925781 23.203125 L 12.007812 23.203125 C 11.703125 23.203125 11.453125 23.449219 11.453125 23.753906 Z M 11.453125 27.144531 "/>
<path style=" stroke:none;fill-rule:nonzero;fill:rgb(19.607843%,69.01961%,90.588236%);fill-opacity:1;" d="M 14.378906 26.210938 C 14.910156 26.210938 15.347656 25.785156 15.347656 25.25 C 15.347656 24.714844 14.90625 24.292969 14.378906 24.292969 C 13.84375 24.292969 13.410156 24.722656 13.410156 25.257812 C 13.414062 25.792969 13.835938 26.210938 14.378906 26.210938 Z M 14.378906 26.210938 "/>
<path style=" stroke:none;fill-rule:nonzero;fill:rgb(96.862745%,96.862745%,96.862745%);fill-opacity:1;" d="M 29.3125 28.820312 L 13.644531 28.816406 C 13.234375 28.816406 12.902344 29.148438 12.902344 29.554688 L 12.902344 39.71875 C 12.902344 40.125 13.234375 40.457031 13.644531 40.457031 L 29.3125 40.457031 C 29.71875 40.457031 30.054688 40.125 30.054688 39.71875 L 30.054688 29.558594 C 30.058594 29.152344 29.722656 28.820312 29.3125 28.820312 Z M 29.3125 28.820312 "/>
<path style=" stroke:none;fill-rule:nonzero;fill:rgb(96.862745%,96.862745%,96.862745%);fill-opacity:1;" d="M 29.3125 41.460938 L 13.648438 41.460938 C 13.238281 41.460938 12.90625 41.792969 12.90625 42.199219 L 12.90625 52.363281 C 12.90625 52.769531 13.238281 53.101562 13.648438 53.101562 L 29.316406 53.101562 C 29.722656 53.101562 30.058594 52.769531 30.058594 52.363281 L 30.058594 42.199219 C 30.058594 41.792969 29.722656 41.460938 29.3125 41.460938 Z M 29.3125 41.460938 "/>
<path style=" stroke:none;fill-rule:nonzero;fill:rgb(96.862745%,96.862745%,96.862745%);fill-opacity:1;" d="M 47.589844 41.472656 L 31.921875 41.472656 C 31.511719 41.472656 31.179688 41.804688 31.179688 42.210938 L 31.179688 52.367188 C 31.179688 52.773438 31.511719 53.105469 31.921875 53.105469 L 47.589844 53.105469 C 48 53.105469 48.332031 52.773438 48.332031 52.367188 L 48.332031 42.210938 C 48.332031 41.800781 48.003906 41.472656 47.589844 41.472656 Z M 47.589844 41.472656 "/>
<path style=" stroke:none;fill-rule:nonzero;fill:rgb(31.37255%,90.196079%,100%);fill-opacity:1;" d="M 27.460938 32.394531 L 22.851562 32.394531 C 22.648438 32.394531 22.492188 32.554688 22.492188 32.75 C 22.492188 32.953125 22.65625 33.109375 22.851562 33.109375 L 27.460938 33.109375 C 27.667969 33.109375 27.820312 32.945312 27.820312 32.75 C 27.820312 32.546875 27.652344 32.394531 27.460938 32.394531 Z M 27.460938 32.394531 "/>
<path style=" stroke:none;fill-rule:nonzero;fill:rgb(19.607843%,69.01961%,90.588236%);fill-opacity:1;" d="M 27.460938 33.953125 L 22.851562 33.953125 C 22.648438 33.953125 22.492188 34.117188 22.492188 34.3125 C 22.492188 34.515625 22.65625 34.667969 22.851562 34.667969 L 27.460938 34.667969 C 27.667969 34.667969 27.820312 34.507812 27.820312 34.3125 C 27.820312 34.121094 27.652344 33.953125 27.460938 33.953125 Z M 27.460938 33.953125 "/>
<path style=" stroke:none;fill-rule:evenodd;fill:rgb(9.411765%,35.294119%,59.215689%);fill-opacity:1;" d="M 22.847656 35.652344 L 25.152344 35.652344 C 25.355469 35.652344 25.511719 35.816406 25.511719 36.007812 C 25.511719 36.214844 25.347656 36.367188 25.152344 36.367188 L 22.847656 36.367188 C 22.644531 36.367188 22.488281 36.203125 22.488281 36.007812 C 22.488281 35.8125 22.648438 35.652344 22.847656 35.652344 Z M 22.847656 35.652344 "/>
<path style=" stroke:none;fill-rule:nonzero;fill:rgb(96.862745%,96.862745%,96.862745%);fill-opacity:1;" d="M 47.589844 28.816406 L 31.921875 28.816406 C 31.511719 28.816406 31.179688 29.148438 31.179688 29.554688 L 31.179688 39.714844 C 31.179688 40.121094 31.511719 40.453125 31.921875 40.453125 L 47.589844 40.453125 C 48 40.453125 48.332031 40.121094 48.332031 39.714844 L 48.332031 29.554688 C 48.332031 29.148438 48.003906 28.816406 47.589844 28.816406 Z M 47.589844 28.816406 "/>
<path style=" stroke:none;fill-rule:nonzero;fill:rgb(27.058825%,79.215688%,94.901961%);fill-opacity:1;" d="M 17.894531 49.339844 L 16.289062 49.339844 L 16.289062 51.425781 L 17.894531 51.425781 Z M 17.894531 49.339844 "/>
<path style=" stroke:none;fill-rule:nonzero;fill:rgb(31.37255%,90.196079%,100%);fill-opacity:1;" d="M 20.285156 47.949219 L 18.648438 47.949219 L 18.648438 51.429688 L 20.285156 51.429688 Z M 20.285156 47.949219 "/>
<path style=" stroke:none;fill-rule:nonzero;fill:rgb(19.607843%,69.01961%,90.588236%);fill-opacity:1;" d="M 23.195312 45.695312 L 21.097656 45.695312 L 21.097656 51.421875 L 23.195312 51.421875 Z M 23.195312 45.695312 "/>
<path style=" stroke:none;fill-rule:nonzero;fill:rgb(9.411765%,35.294119%,59.215689%);fill-opacity:1;" d="M 26.488281 43.367188 L 24.070312 43.367188 L 24.070312 51.425781 L 26.488281 51.425781 Z M 26.488281 43.367188 "/>
<path style=" stroke:none;fill-rule:evenodd;fill:rgb(0%,39.607844%,66.274512%);fill-opacity:1;" d="M 34.699219 39.191406 L 35.007812 39.191406 L 35.007812 30.519531 L 34.699219 30.519531 Z M 34.699219 39.191406 "/>
<path style=" stroke:none;fill-rule:evenodd;fill:rgb(0%,47.843137%,80.000001%);fill-opacity:1;" d="M 34.03125 34.226562 C 34.03125 34.414062 33.859375 34.558594 33.644531 34.558594 C 33.429688 34.554688 33.257812 34.410156 33.257812 34.226562 C 33.257812 34.042969 33.429688 33.894531 33.644531 33.894531 C 33.863281 33.890625 34.03125 34.046875 34.03125 34.226562 Z M 34.03125 34.226562 "/>
<path style=" stroke:none;fill-rule:evenodd;fill:rgb(0%,39.607844%,66.274512%);fill-opacity:1;" d="M 34.03125 35.734375 C 34.03125 35.921875 33.859375 36.066406 33.644531 36.066406 C 33.429688 36.0625 33.257812 35.914062 33.257812 35.734375 C 33.257812 35.550781 33.429688 35.402344 33.644531 35.402344 C 33.863281 35.402344 34.03125 35.546875 34.03125 35.734375 Z M 34.03125 35.734375 "/>
<path style=" stroke:none;fill-rule:evenodd;fill:rgb(0%,32.156864%,49.803922%);fill-opacity:1;" d="M 34.03125 37.304688 C 34.03125 37.492188 33.859375 37.636719 33.644531 37.636719 C 33.429688 37.636719 33.257812 37.484375 33.257812 37.304688 C 33.257812 37.121094 33.429688 36.972656 33.644531 36.972656 C 33.863281 36.96875 34.03125 37.125 34.03125 37.304688 Z M 34.03125 37.304688 "/>
<path style=" stroke:none;fill-rule:evenodd;fill:rgb(0%,32.156864%,49.803922%);fill-opacity:1;" d="M 39.40625 37.636719 L 36.117188 37.636719 C 35.964844 37.636719 35.847656 37.496094 35.847656 37.328125 C 35.847656 37.160156 35.96875 37.019531 36.117188 37.019531 L 39.40625 37.019531 C 39.554688 37.019531 39.671875 37.160156 39.671875 37.328125 C 39.671875 37.5 39.550781 37.636719 39.40625 37.636719 Z M 39.40625 37.636719 "/>
<path style=" stroke:none;fill-rule:evenodd;fill:rgb(0%,32.156864%,49.803922%);fill-opacity:1;" d="M 42.621094 37.636719 L 40.601562 37.636719 C 40.382812 37.636719 40.207031 37.496094 40.207031 37.328125 C 40.207031 37.160156 40.386719 37.019531 40.601562 37.019531 L 42.621094 37.019531 C 42.839844 37.019531 43.011719 37.160156 43.011719 37.328125 C 43.019531 37.5 42.839844 37.636719 42.621094 37.636719 Z M 42.621094 37.636719 "/>
<path style=" stroke:none;fill-rule:evenodd;fill:rgb(12.156863%,61.176473%,94.117647%);fill-opacity:1;" d="M 39.277344 32.910156 L 36.234375 32.910156 C 36.019531 32.910156 35.84375 32.769531 35.84375 32.601562 C 35.84375 32.429688 36.023438 32.292969 36.234375 32.292969 L 39.277344 32.292969 C 39.492188 32.292969 39.667969 32.433594 39.667969 32.601562 C 39.667969 32.769531 39.488281 32.910156 39.277344 32.910156 Z M 39.277344 32.910156 "/>
<path style=" stroke:none;fill-rule:evenodd;fill:rgb(0%,39.607844%,66.274512%);fill-opacity:1;" d="M 39.40625 36.042969 L 36.140625 36.042969 C 35.980469 36.042969 35.851562 35.902344 35.851562 35.734375 C 35.851562 35.5625 35.980469 35.425781 36.140625 35.425781 L 39.40625 35.425781 C 39.5625 35.425781 39.691406 35.566406 39.691406 35.734375 C 39.699219 35.902344 39.570312 36.042969 39.40625 36.042969 Z M 39.40625 36.042969 "/>
<path style=" stroke:none;fill-rule:evenodd;fill:rgb(0%,39.607844%,66.274512%);fill-opacity:1;" d="M 43.671875 36.042969 L 40.503906 36.042969 C 40.34375 36.042969 40.214844 35.902344 40.214844 35.734375 C 40.214844 35.5625 40.34375 35.425781 40.503906 35.425781 L 43.671875 35.425781 C 43.832031 35.425781 43.960938 35.566406 43.960938 35.734375 C 43.960938 35.90625 43.835938 36.042969 43.671875 36.042969 Z M 43.671875 36.042969 "/>
<path style=" stroke:none;fill-rule:evenodd;fill:rgb(0%,47.843137%,80.000001%);fill-opacity:1;" d="M 36.179688 34.511719 C 35.992188 34.511719 35.839844 34.371094 35.839844 34.203125 C 35.839844 34.035156 35.992188 33.890625 36.179688 33.890625 L 39.375 33.890625 C 39.558594 33.890625 39.710938 34.035156 39.710938 34.203125 C 39.710938 34.371094 39.558594 34.511719 39.375 34.511719 Z M 36.179688 34.511719 "/>
<path style=" stroke:none;fill-rule:evenodd;fill:rgb(0%,39.607844%,66.274512%);fill-opacity:1;" d="M 45.542969 36.042969 L 42.375 36.042969 C 42.214844 36.042969 42.085938 35.902344 42.085938 35.734375 C 42.085938 35.5625 42.214844 35.425781 42.375 35.425781 L 45.542969 35.425781 C 45.703125 35.425781 45.832031 35.566406 45.832031 35.734375 C 45.835938 35.902344 45.707031 36.042969 45.542969 36.042969 Z M 45.542969 36.042969 "/>
<path style=" stroke:none;fill-rule:evenodd;fill:url(#linear2);" d="M 38.152344 47.601562 L 37.464844 47.84375 L 37.34375 48.265625 L 37.640625 48.875 L 37.679688 48.960938 L 37.246094 49.378906 L 36.546875 49.039062 L 36.128906 49.203125 L 35.902344 49.84375 L 35.875 49.933594 L 35.269531 49.914062 L 35.023438 49.179688 L 34.605469 49.003906 L 33.992188 49.300781 L 33.90625 49.339844 L 33.484375 48.902344 L 33.828125 48.207031 L 33.664062 47.789062 L 33.019531 47.5625 L 32.929688 47.535156 L 32.945312 46.933594 L 33.6875 46.683594 L 33.867188 46.265625 L 33.570312 45.65625 L 33.527344 45.578125 L 33.964844 45.160156 L 34.664062 45.507812 L 35.089844 45.355469 L 35.308594 44.746094 L 35.335938 44.714844 L 35.933594 44.734375 L 36.1875 45.410156 L 36.605469 45.53125 L 37.21875 45.238281 L 37.300781 45.195312 L 37.527344 45.4375 L 37.714844 45.628906 L 37.679688 45.695312 L 37.363281 46.324219 L 37.515625 46.746094 L 38.128906 46.960938 L 38.160156 46.992188 Z M 35.59375 48.109375 C 36.0625 48.121094 36.449219 47.742188 36.457031 47.285156 C 36.464844 46.820312 36.09375 46.429688 35.625 46.425781 C 35.160156 46.417969 34.769531 46.792969 34.765625 47.257812 C 34.753906 47.71875 35.128906 48.105469 35.59375 48.109375 Z M 35.59375 48.109375 "/>
<path style=" stroke:none;fill-rule:evenodd;fill:rgb(31.37255%,90.196079%,100%);fill-opacity:1;" d="M 39.050781 46.640625 L 46.480469 46.640625 L 46.480469 45.355469 L 39.050781 45.355469 Z M 39.050781 46.640625 "/>
<path style=" stroke:none;fill-rule:evenodd;fill:rgb(31.37255%,90.196079%,100%);fill-opacity:1;" d="M 39.050781 48.875 L 46.480469 48.875 L 46.480469 47.589844 L 39.050781 47.589844 Z M 39.050781 48.875 "/>
<path style=" stroke:none;fill-rule:evenodd;fill:url(#linear3);" d="M 39.050781 46.640625 L 42.179688 46.640625 L 42.179688 45.355469 L 39.050781 45.355469 Z M 39.050781 46.640625 "/>
<path style=" stroke:none;fill-rule:evenodd;fill:url(#linear4);" d="M 39.050781 48.875 L 44 48.875 L 44 47.589844 L 39.050781 47.589844 Z M 39.050781 48.875 "/>
<path style=" stroke:none;fill-rule:nonzero;fill:url(#linear5);" d="M 17.941406 35.984375 C 18.652344 35.984375 19.230469 35.40625 19.230469 34.699219 C 19.230469 33.992188 18.652344 33.417969 17.941406 33.417969 C 17.230469 33.417969 16.652344 33.992188 16.652344 34.699219 C 16.652344 35.40625 17.226562 35.984375 17.941406 35.984375 Z M 17.941406 35.984375 "/>
<path style=" stroke:none;fill-rule:nonzero;fill:rgb(94.901961%,94.509804%,94.117647%);fill-opacity:1;" d="M 18.546875 34.078125 L 17.585938 35.03125 L 17.300781 34.75 L 17.117188 34.941406 L 17.59375 35.417969 L 18.75 34.277344 Z M 18.546875 34.078125 "/>
<path style=" stroke:none;fill-rule:nonzero;fill:url(#linear6);" d="M 17.933594 31.175781 C 15.976562 31.175781 14.386719 32.753906 14.386719 34.707031 C 14.386719 36.65625 15.972656 38.234375 17.933594 38.234375 C 19.894531 38.234375 21.480469 36.65625 21.480469 34.707031 C 21.472656 32.753906 19.890625 31.175781 17.933594 31.175781 Z M 17.933594 36.351562 C 17.023438 36.351562 16.28125 35.613281 16.28125 34.707031 C 16.28125 33.800781 17.023438 33.0625 17.933594 33.0625 C 18.84375 33.0625 19.585938 33.800781 19.585938 34.707031 C 19.585938 35.613281 18.84375 36.351562 17.933594 36.351562 Z M 17.933594 36.351562 "/>
<path style=" stroke:none;fill-rule:nonzero;fill:rgb(31.37255%,90.196079%,100%);fill-opacity:1;" d="M 17.929688 33.0625 L 17.921875 31.175781 C 16.679688 31.183594 15.582031 31.824219 14.949219 32.796875 L 16.507812 33.875 C 16.785156 33.390625 17.320312 33.0625 17.929688 33.0625 Z M 17.929688 33.0625 "/>
<path style=" stroke:none;fill-rule:nonzero;fill:rgb(23.137255%,79.215688%,95.686275%);fill-opacity:1;" d="M 16.285156 34.707031 C 16.285156 34.40625 16.363281 34.125 16.503906 33.882812 L 14.957031 32.796875 L 14.949219 32.8125 C 14.605469 33.359375 14.394531 34.007812 14.394531 34.707031 C 14.394531 35.222656 14.511719 35.714844 14.710938 36.160156 L 16.4375 35.398438 C 16.332031 35.1875 16.285156 34.953125 16.285156 34.707031 Z M 16.285156 34.707031 "/>
<use xlink:href="#surface8" mask="url(#mask1)"/>
<path style=" stroke:none;fill-rule:nonzero;fill:rgb(100%,100%,100%);fill-opacity:1;" d="M 42.988281 59.945312 L 68.308594 59.945312 C 68.679688 59.945312 68.992188 59.644531 68.992188 59.265625 L 68.992188 39.777344 L 42.304688 39.777344 L 42.304688 59.273438 C 42.304688 59.644531 42.609375 59.945312 42.988281 59.945312 Z M 42.988281 59.945312 "/>
<path style=" stroke:none;fill-rule:nonzero;fill:rgb(9.411765%,35.294119%,59.215689%);fill-opacity:1;" d="M 42.304688 41.453125 L 68.988281 41.453125 L 68.988281 39.324219 C 68.988281 39.042969 68.75 38.808594 68.464844 38.808594 L 42.828125 38.808594 C 42.542969 38.808594 42.304688 39.042969 42.304688 39.324219 Z M 42.304688 41.453125 "/>
<path style=" stroke:none;fill-rule:nonzero;fill:url(#linear7);" d="M 43.703125 40.726562 C 44.054688 40.726562 44.34375 40.445312 44.34375 40.089844 C 44.34375 39.738281 44.054688 39.457031 43.703125 39.457031 C 43.351562 39.457031 43.0625 39.742188 43.0625 40.09375 C 43.0625 40.449219 43.34375 40.726562 43.703125 40.726562 Z M 43.703125 40.726562 "/>
<use xlink:href="#surface11" mask="url(#mask2)"/>
<path style=" stroke:none;fill-rule:nonzero;fill:rgb(9.411765%,35.294119%,59.215689%);fill-opacity:1;" d="M 55.78125 49.675781 L 53.671875 49.675781 L 53.671875 55.980469 L 55.78125 55.980469 Z M 55.78125 49.675781 "/>
<path style=" stroke:none;fill-rule:nonzero;fill:rgb(14.117648%,22.745098%,36.862746%);fill-opacity:1;" d="M 53.667969 46.171875 L 47.328125 46.171875 L 47.328125 55.984375 L 53.667969 55.984375 Z M 53.667969 46.171875 "/>
<path style=" stroke:none;fill-rule:nonzero;fill:rgb(31.37255%,90.196079%,100%);fill-opacity:1;" d="M 49.796875 50.027344 L 45.570312 50.027344 L 45.570312 55.632812 L 49.796875 55.632812 Z M 49.796875 50.027344 "/>
<path style=" stroke:none;fill-rule:nonzero;fill:rgb(19.607843%,69.01961%,90.588236%);fill-opacity:1;" d="M 49.445312 50.371094 L 49.445312 55.277344 L 45.929688 55.277344 L 45.929688 50.371094 Z M 50.152344 49.675781 L 45.21875 49.675781 L 45.21875 55.980469 L 50.152344 55.980469 Z M 50.152344 49.675781 "/>
<path style=" stroke:none;fill-rule:nonzero;fill:rgb(19.607843%,69.01961%,90.588236%);fill-opacity:1;" d="M 48.738281 51.070312 L 46.625 51.070312 L 46.625 51.769531 L 48.738281 51.769531 Z M 48.738281 51.070312 "/>
<path style=" stroke:none;fill-rule:nonzero;fill:rgb(19.607843%,69.01961%,90.588236%);fill-opacity:1;" d="M 48.738281 52.476562 L 46.625 52.476562 L 46.625 53.175781 L 48.738281 53.175781 Z M 48.738281 52.476562 "/>
<path style=" stroke:none;fill-rule:nonzero;fill:rgb(19.607843%,69.01961%,90.588236%);fill-opacity:1;" d="M 48.738281 53.878906 L 46.625 53.878906 L 46.625 54.578125 L 48.738281 54.578125 Z M 48.738281 53.878906 "/>
<path style=" stroke:none;fill-rule:nonzero;fill:rgb(100%,100%,100%);fill-opacity:1;" d="M 50.152344 47.574219 L 48.742188 47.574219 L 48.742188 48.976562 L 50.152344 48.976562 Z M 50.152344 47.574219 "/>
<path style=" stroke:none;fill-rule:nonzero;fill:rgb(100%,100%,100%);fill-opacity:1;" d="M 52.261719 47.574219 L 50.851562 47.574219 L 50.851562 48.976562 L 52.261719 48.976562 Z M 52.261719 47.574219 "/>
<path style=" stroke:none;fill-rule:nonzero;fill:rgb(100%,100%,100%);fill-opacity:1;" d="M 52.261719 49.675781 L 50.851562 49.675781 L 50.851562 51.074219 L 52.261719 51.074219 Z M 52.261719 49.675781 "/>
<path style=" stroke:none;fill-rule:nonzero;fill:rgb(100%,100%,100%);fill-opacity:1;" d="M 52.261719 51.773438 L 50.851562 51.773438 L 50.851562 53.175781 L 52.261719 53.175781 Z M 52.261719 51.773438 "/>
<path style=" stroke:none;fill-rule:nonzero;fill:rgb(100%,100%,100%);fill-opacity:1;" d="M 52.261719 53.878906 L 50.851562 53.878906 L 50.851562 55.28125 L 52.261719 55.28125 Z M 52.261719 53.878906 "/>
<path style=" stroke:none;fill-rule:nonzero;fill:rgb(0%,47.058824%,83.137256%);fill-opacity:1;" d="M 55.78125 54.578125 C 56.171875 54.578125 56.484375 54.265625 56.484375 53.878906 C 56.484375 53.492188 56.167969 53.179688 55.78125 53.179688 C 55.394531 53.179688 55.078125 53.496094 55.078125 53.878906 C 55.074219 54.269531 55.394531 54.578125 55.78125 54.578125 Z M 55.78125 54.578125 "/>
<path style=" stroke:none;fill-rule:nonzero;fill:rgb(31.37255%,90.196079%,100%);fill-opacity:1;" d="M 56.835938 53.878906 C 56.835938 53.300781 56.359375 52.828125 55.777344 52.828125 C 55.195312 52.828125 54.71875 53.300781 54.71875 53.878906 C 54.71875 54.335938 55.011719 54.722656 55.421875 54.871094 L 55.421875 55.984375 L 56.128906 55.984375 L 56.128906 54.871094 C 56.546875 54.722656 56.835938 54.335938 56.835938 53.878906 Z M 55.777344 54.230469 C 55.585938 54.230469 55.421875 54.074219 55.421875 53.875 C 55.421875 53.683594 55.578125 53.519531 55.777344 53.519531 C 55.972656 53.519531 56.132812 53.675781 56.132812 53.875 C 56.132812 54.070312 55.976562 54.230469 55.777344 54.230469 Z M 55.777344 54.230469 "/>
<path style=" stroke:none;fill-rule:nonzero;fill:rgb(31.37255%,90.196079%,100%);fill-opacity:1;" d="M 65.496094 48.496094 C 65.496094 48.277344 65.320312 48.101562 65.101562 48.101562 L 58.972656 48.101562 C 58.753906 48.101562 58.578125 48.277344 58.578125 48.496094 C 58.578125 48.710938 58.753906 48.886719 58.972656 48.886719 L 65.105469 48.886719 C 65.324219 48.882812 65.496094 48.707031 65.496094 48.496094 Z M 65.496094 48.496094 "/>
<path style=" stroke:none;fill-rule:nonzero;fill:rgb(5.098039%,21.960784%,40.784314%);fill-opacity:1;" d="M 60.058594 48.484375 C 60.058594 48.917969 60.410156 49.269531 60.84375 49.269531 C 61.28125 49.269531 61.632812 48.917969 61.632812 48.484375 C 61.632812 48.050781 61.28125 47.703125 60.84375 47.703125 C 60.410156 47.707031 60.058594 48.058594 60.058594 48.484375 Z M 60.058594 48.484375 "/>
<path style=" stroke:none;fill-rule:nonzero;fill:rgb(19.607843%,69.01961%,90.588236%);fill-opacity:1;" d="M 65.496094 50.480469 C 65.496094 50.261719 65.320312 50.085938 65.101562 50.085938 L 58.972656 50.085938 C 58.753906 50.085938 58.578125 50.261719 58.578125 50.480469 C 58.578125 50.695312 58.753906 50.875 58.972656 50.875 L 65.105469 50.875 C 65.324219 50.875 65.496094 50.699219 65.496094 50.480469 Z M 65.496094 50.480469 "/>
<path style=" stroke:none;fill-rule:nonzero;fill:rgb(5.098039%,21.960784%,40.784314%);fill-opacity:1;" d="M 62.425781 50.480469 C 62.425781 50.914062 62.777344 51.261719 63.214844 51.261719 C 63.648438 51.261719 64 50.914062 64 50.480469 C 64 50.046875 63.648438 49.695312 63.214844 49.695312 C 62.78125 49.703125 62.425781 50.046875 62.425781 50.480469 Z M 62.425781 50.480469 "/>
<path style=" stroke:none;fill-rule:nonzero;fill:rgb(9.411765%,35.294119%,59.215689%);fill-opacity:1;" d="M 65.496094 52.589844 C 65.496094 52.371094 65.320312 52.195312 65.101562 52.195312 L 58.972656 52.195312 C 58.753906 52.195312 58.578125 52.371094 58.578125 52.589844 C 58.578125 52.804688 58.753906 52.980469 58.972656 52.980469 L 65.105469 52.980469 C 65.324219 52.976562 65.496094 52.804688 65.496094 52.589844 Z M 65.496094 52.589844 "/>
<path style=" stroke:none;fill-rule:nonzero;fill:rgb(5.098039%,21.960784%,40.784314%);fill-opacity:1;" d="M 60.085938 52.589844 C 60.085938 53.023438 60.4375 53.371094 60.871094 53.371094 C 61.308594 53.371094 61.65625 53.023438 61.65625 52.589844 C 61.65625 52.15625 61.308594 51.804688 60.871094 51.804688 C 60.4375 51.800781 60.085938 52.15625 60.085938 52.589844 Z M 60.085938 52.589844 "/>
</g>
</svg>
